<?xml version='1.0' encoding='utf-8'?>
<!-- Generator: Adobe Illustrator 25.2.3, SVG Export Plug-In . SVG Version: 6.00 Build 0)  -->
<svg xmlns:xlink="http://www.w3.org/1999/xlink" xmlns="http://www.w3.org/2000/svg" version="1.1" y="0px" style="enable-background:new 0 0 36 36;" x="0px" id="Layer_2_copy" xml:space="preserve" viewBox="0 0 36 36">
 <style type="text/css">&#xd;
	.st0{fill:none;stroke:#FFFFFF;stroke-width:1.25;stroke-linecap:round;stroke-linejoin:round;}&#xd;
</style>
 <line x1="1.5" x2="34.5" class="st0" y2="34.5" y1="1.5"/>
 <path d="M23.7,23.7c-1.9,0.3-3.8,0.4-5.7,0.4c-9.1,0-16.5-2.7-16.5-6.1c0-2.6,4.5-4.9,10.8-5.7" class="st0"/>
 <path d="M20.5,12c8,0.4,14,3,14,6c0,1.5-1.5,2.9-4,4" class="st0"/>
 <path d="M15.6,7.1c2.9-3.6,6.2-5.4,8.6-4.4c3.4,1.4,4.1,7.8,1.9,15" class="st0"/>
 <path d="M23.7,23.7c-3.5,6.8-8.6,11-12,9.6c-3.9-1.6-4.2-9.7-0.8-18.1c0.4-1,0.8-1.9,1.3-2.8" class="st0"/>
</svg>
