<?xml version='1.0' encoding='utf-8'?>
<!-- Generator: Adobe Illustrator 25.2.0, SVG Export Plug-In . SVG Version: 6.00 Build 0)  -->
<svg xmlns:xlink="http://www.w3.org/1999/xlink" xmlns="http://www.w3.org/2000/svg" version="1.1" y="0px" style="enable-background:new 0 0 36 36;" x="0px" id="Layer_1" xml:space="preserve" viewBox="0 0 36 36">
 <style type="text/css">&#xd;
	.st0{fill:none;stroke:#4FB5C2;stroke-width:1.25;stroke-linecap:round;stroke-linejoin:round;}&#xd;
</style>
 <path d="M26.9,26.9c-2.6,2-5.7,3-8.9,3.1C7.5,30,1.5,18,1.5,18c1.9-3.5,4.5-6.5,7.6-8.9 M14.8,6.4C15.9,6.1,16.9,6,18,6&#xd;&#xa;&#x9;c10.5,0,16.5,12,16.5,12c-0.9,1.7-2,3.3-3.2,4.8 M21.2,21.2c-1.7,1.8-4.5,1.9-6.4,0.2s-1.9-4.5-0.2-6.4c0.1-0.1,0.1-0.2,0.2-0.2" class="st0"/>
 <line x1="1.5" x2="34.5" class="st0" y2="34.5" y1="1.5"/>
</svg>
