<?xml version='1.0' encoding='utf-8'?>
<!-- Generator: Adobe Illustrator 22.0.0, SVG Export Plug-In . SVG Version: 6.00 Build 0)  -->
<svg xmlns:xlink="http://www.w3.org/1999/xlink" baseProfile="tiny" xmlns="http://www.w3.org/2000/svg" version="1.1" y="0px" x="0px" id="Layer_1" xml:space="preserve" viewBox="0 0 36 36">
 <path d="M31.4,11&#xa;&#x9;c1.1,2.2,1.6,4.5,1.6,7c0,8.3-6.7,15-15,15S3,26.3,3,18S9.7,3,18,3c2.7,0,5.2,0.7,7.4,2" stroke-width="1.25" fill="none" stroke-linejoin="round" stroke="#000000" stroke-linecap="round"/>
 <path d="M26.7,15.5&#xa;&#x9;c0.2,0.9,0.4,1.6,0.4,2.5c0,5.1-4,9-9,9s-9-4-9-9s4-9,9-9" stroke-width="1.25" fill="none" stroke-linejoin="round" stroke="#000000" stroke-linecap="round"/>
 <circle r="3.1" stroke-width="1.25" fill="none" stroke-linejoin="round" stroke="#000000" stroke-linecap="round" cy="18" cx="18"/>
 <polyline stroke-width="1.25" fill="none" stroke-linejoin="round" stroke="#000000" points="32.8,3.7 &#xa;&#x9;24.5,12 21.8,9.3 " stroke-linecap="round"/>
</svg>
