<?xml version='1.0' encoding='utf-8'?>
<!-- Generator: Adobe Illustrator 27.0.1, SVG Export Plug-In . SVG Version: 6.00 Build 0)  -->
<svg xmlns:xlink="http://www.w3.org/1999/xlink" xmlns="http://www.w3.org/2000/svg" version="1.1" y="0px" style="enable-background:new 0 0 36 36;" x="0px" id="Layer_1" xml:space="preserve" viewBox="0 0 36 36">
 <g id="Layer_1_00000009553569464269652130000002107153127322637239_">
  <path d="   M34.9,18c0,9.2-7.5,16.7-16.7,16.7H1.5l4.9-4.9c-3-3-4.9-7.2-4.9-11.8C1.6,8.8,9,1.3,18.2,1.3S34.9,8.8,34.9,18z" style="fill:none;stroke:#FFFFFF;stroke-width:1.25;stroke-linecap:round;stroke-linejoin:round;stroke-miterlimit:10;"/>
 </g>
 <g id="Ebene_1">
  <line x1="8.4" x2="17.6" style="fill:none;stroke:#FFFFFF;stroke-width:1.25;stroke-linecap:round;stroke-linejoin:round;stroke-miterlimit:10;" y2="11.3" y1="11.3"/>
  <line x1="13" x2="13" style="fill:none;stroke:#FFFFFF;stroke-width:1.25;stroke-linecap:round;stroke-linejoin:round;stroke-miterlimit:10;" y2="11.3" y1="8.3"/>
  <path d="   M9.4,20.4c3.7-2.1,6-5.1,7.3-9.1" style="fill:none;stroke:#FFFFFF;stroke-width:1.25;stroke-linecap:round;stroke-linejoin:round;stroke-miterlimit:10;"/>
  <path d="   M10.9,14.7c1.6,2.7,3.6,4.3,5.8,5.7" style="fill:none;stroke:#FFFFFF;stroke-width:1.25;stroke-linecap:round;stroke-linejoin:round;stroke-miterlimit:10;"/>
  <polyline style="fill:none;stroke:#FFFFFF;stroke-width:1.25;stroke-linecap:round;stroke-linejoin:round;stroke-miterlimit:10;" points="   17.8,26.6 22.4,15.9 27,26.6  "/>
  <line x1="18.6" x2="26.2" style="fill:none;stroke:#FFFFFF;stroke-width:1.25;stroke-linecap:round;stroke-linejoin:round;stroke-miterlimit:10;" y2="24.7" y1="24.7"/>
 </g>
</svg>
