<?xml version='1.0' encoding='utf-8'?>
<!-- Generator: Adobe Illustrator 25.2.0, SVG Export Plug-In . SVG Version: 6.00 Build 0)  -->
<svg xmlns:xlink="http://www.w3.org/1999/xlink" xmlns="http://www.w3.org/2000/svg" version="1.1" y="0px" style="enable-background:new 0 0 40 40;" x="0px" id="Layer_1" xml:space="preserve" viewBox="0 0 40 40">
 <style type="text/css">&#xd;
	.st0{fill:none;stroke:#000000;stroke-width:1.25;stroke-linecap:round;stroke-linejoin:round;stroke-miterlimit:6.6667;}&#xd;
</style>
 <circle r="5" class="st0" cy="20" cx="20"/>
 <path d="M32.3,25c-0.5,1-0.2,2.2,0.5,3l0.1,0.1c1.3,1.3,1.3,3.4,0,4.7c0,0,0,0,0,0c-1.3,1.3-3.4,1.3-4.7,0c0,0,0,0,0,0&#xd;&#xa;&#x9;l-0.1-0.1c-0.8-0.8-2-1-3-0.6c-1,0.4-1.7,1.4-1.7,2.5V35c0,1.8-1.5,3.3-3.3,3.3c-1.8,0-3.3-1.5-3.3-3.3v-0.2c0-1.1-0.7-2.1-1.8-2.5&#xd;&#xa;&#x9;c-1-0.5-2.2-0.2-3,0.5L11.9,33c-1.3,1.3-3.4,1.3-4.7,0c0,0,0,0,0,0c-1.3-1.3-1.3-3.4,0-4.7c0,0,0,0,0,0l0.1-0.1c0.8-0.8,1-2,0.6-3&#xd;&#xa;&#x9;c-0.4-1-1.4-1.7-2.5-1.7H5c-1.8,0-3.3-1.5-3.3-3.3c0-1.8,1.5-3.3,3.3-3.3h0.1c1.1,0,2.1-0.7,2.5-1.8c0.5-1,0.2-2.2-0.6-3L7,11.9&#xd;&#xa;&#x9;c-1.3-1.3-1.3-3.4,0-4.7c0,0,0,0,0,0c1.3-1.3,3.4-1.3,4.7,0c0,0,0,0,0,0l0.1,0.1c0.8,0.8,2,1,3,0.6H15c1-0.4,1.7-1.4,1.7-2.5V5&#xd;&#xa;&#x9;c0-1.8,1.5-3.3,3.3-3.3c1.8,0,3.3,1.5,3.3,3.3v0.1c0,1.1,0.7,2.1,1.7,2.5c1,0.5,2.2,0.2,3-0.6L28.1,7c1.3-1.3,3.4-1.3,4.7,0&#xd;&#xa;&#x9;c0,0,0,0,0,0c1.3,1.3,1.3,3.4,0,4.7c0,0,0,0,0,0l-0.1,0.1c-0.8,0.8-1,2-0.6,3V15c0.4,1,1.4,1.7,2.5,1.7H35c1.8,0,3.3,1.5,3.3,3.3&#xd;&#xa;&#x9;c0,1.8-1.5,3.3-3.3,3.3h-0.2C33.8,23.3,32.8,24,32.3,25z" class="st0"/>
</svg>
