<?xml version='1.0' encoding='utf-8'?>
<!-- Generator: Adobe Illustrator 25.2.1, SVG Export Plug-In . SVG Version: 6.00 Build 0)  -->
<svg xmlns:xlink="http://www.w3.org/1999/xlink" xmlns="http://www.w3.org/2000/svg" version="1.1" y="0px" style="enable-background:new 0 0 36 36;" x="0px" id="Layer_1" xml:space="preserve" viewBox="0 0 36 36">
 <style type="text/css">&#xd;
	.st0{fill:none;stroke:#FFFFFF;stroke-width:1.25;stroke-linecap:round;stroke-linejoin:round;}&#xd;
</style>
 <path d="M34.5,4.5c-1.4,1-3,1.8-4.7,2.3c-2.4-2.8-6.7-3.1-9.5-0.7C18.8,7.4,18,9.3,18,11.3v1.5&#xd;&#xa;&#x9;C12.6,12.9,7.6,10.4,4.5,6c0,0-6,13.5,7.5,19.5c-3.1,2.1-6.8,3.1-10.5,3c13.5,7.5,30,0,30-17.2c0-0.4,0-0.8-0.1-1.2&#xd;&#xa;&#x9;C32.9,8.5,34,6.6,34.5,4.5z" class="st0"/>
</svg>
