<?xml version='1.0' encoding='utf-8'?>
<!-- Generator: Adobe Illustrator 25.2.1, SVG Export Plug-In . SVG Version: 6.00 Build 0)  -->
<svg xmlns:xlink="http://www.w3.org/1999/xlink" xmlns="http://www.w3.org/2000/svg" version="1.1" y="0px" style="enable-background:new 0 0 36 36;" x="0px" id="Layer_1" xml:space="preserve" viewBox="0 0 36 36">
 <style type="text/css">&#xd;
	.st0{fill:none;stroke:#4FB5C2;stroke-width:1.25;stroke-linecap:round;stroke-linejoin:round;}&#xd;
</style>
 <path d="M6,12.7h24c1.7,0,3,1.1,3,2.7v9.4c0,1.7-1.3,3-3,3h-4.6c-1.1,0-2.1-0.6-2.7-1.6l-2.6-4.5c-0.3-0.6-1-1-1.7-1&#xd;&#xa;&#x9;h-0.9c-0.7,0-1.3,0.4-1.6,0.9l-2.8,4.6c-0.6,0.9-1.6,1.5-2.6,1.5H6c-1.7,0-3-1.3-3-3v-9.4C3,13.8,4.3,12.7,6,12.7z" class="st0"/>
 <polyline class="st0" points="13.2,12.7 13.2,4.2 22.8,4.2 22.8,12.7 "/>
</svg>
